<?xml version="1.0" encoding="UTF-8"?>
<svg xmlns="http://www.w3.org/2000/svg" xmlns:xlink="http://www.w3.org/1999/xlink" width="24px" height="24px" viewBox="0 0 24 24" version="1.1">
<g id="surface1">
<path style=" stroke:none;fill-rule:nonzero;fill:rgb(99.607843%,99.607843%,99.607843%);fill-opacity:1;" d="M 0 0 C 7.921875 0 15.839844 0 24 0 C 24 7.921875 24 15.839844 24 24 C 16.078125 24 8.160156 24 0 24 C 0 16.078125 0 8.160156 0 0 Z M 0 0 "/>
<path style=" stroke:none;fill-rule:nonzero;fill:rgb(0.784314%,1.176471%,0.784314%);fill-opacity:1;" d="M 9.839844 2.59375 C 9.984375 2.640625 9.984375 2.640625 10.046875 2.75 C 10.105469 2.890625 10.167969 3.027344 10.222656 3.167969 C 10.246094 3.214844 10.265625 3.261719 10.285156 3.3125 C 10.367188 3.65625 10.339844 3.988281 10.222656 4.320312 C 10.421875 4.316406 10.421875 4.316406 10.609375 4.273438 C 10.703125 4.164062 10.742188 4.066406 10.800781 3.9375 C 10.886719 3.941406 10.886719 3.941406 10.992188 3.984375 C 11.058594 4.089844 11.101562 4.179688 11.148438 4.296875 C 11.167969 4.34375 11.167969 4.34375 11.1875 4.390625 C 11.273438 4.640625 11.308594 4.871094 11.308594 5.136719 C 11.308594 5.1875 11.308594 5.1875 11.308594 5.238281 C 11.300781 5.472656 11.230469 5.644531 11.136719 5.855469 C 11.089844 6.160156 11.140625 6.402344 11.28125 6.671875 C 11.285156 6.636719 11.289062 6.597656 11.292969 6.5625 C 11.363281 6.039062 11.558594 5.636719 11.957031 5.285156 C 12.046875 5.230469 12.046875 5.230469 12.191406 5.230469 C 12.195312 5.421875 12.195312 5.609375 12.195312 5.800781 C 12.195312 5.851562 12.195312 5.90625 12.195312 5.960938 C 12.195312 6.011719 12.195312 6.066406 12.195312 6.117188 C 12.195312 6.164062 12.195312 6.214844 12.199219 6.261719 C 12.191406 6.382812 12.191406 6.382812 12.144531 6.527344 C 12.179688 6.523438 12.214844 6.515625 12.25 6.511719 C 13.359375 6.34375 14.441406 6.230469 15.566406 6.226562 C 15.609375 6.226562 15.648438 6.226562 15.691406 6.226562 C 16.460938 6.222656 17.207031 6.28125 17.957031 6.457031 C 18.003906 6.464844 18.050781 6.476562 18.097656 6.488281 C 18.441406 6.566406 18.441406 6.566406 18.59375 6.609375 C 18.683594 6.632812 18.773438 6.652344 18.863281 6.671875 C 18.933594 6.625 18.933594 6.625 19.007812 6.574219 C 19.265625 6.554688 19.421875 6.554688 19.632812 6.71875 C 19.726562 6.863281 19.726562 6.863281 19.730469 6.996094 C 19.792969 7.210938 19.917969 7.273438 20.09375 7.402344 C 20.445312 7.664062 20.648438 8.039062 20.785156 8.449219 C 20.816406 8.914062 20.804688 9.316406 20.59375 9.742188 C 20.558594 9.8125 20.558594 9.8125 20.523438 9.882812 C 20.3125 10.277344 20.039062 10.578125 19.726562 10.894531 C 19.695312 10.929688 19.664062 10.964844 19.628906 11 C 19.175781 11.480469 18.613281 11.855469 18.046875 12.191406 C 18.03125 12.191406 18.015625 12.191406 18 12.191406 C 17.953125 12.003906 17.945312 11.851562 18 11.664062 C 18.171875 11.496094 18.371094 11.378906 18.574219 11.25 C 19.382812 10.707031 20.066406 9.933594 20.304688 8.976562 C 20.363281 8.574219 20.242188 8.203125 20.011719 7.875 C 19.859375 7.691406 19.859375 7.691406 19.679688 7.535156 C 19.558594 7.542969 19.558594 7.542969 19.441406 7.585938 C 19.214844 7.609375 19.058594 7.617188 18.863281 7.492188 C 18.699219 7.316406 18.714844 7.195312 18.71875 6.960938 C 18.664062 6.949219 18.605469 6.9375 18.550781 6.925781 C 18.410156 6.894531 18.273438 6.859375 18.140625 6.820312 C 16.484375 6.332031 14.546875 6.40625 12.851562 6.652344 C 12.730469 6.671875 12.609375 6.683594 12.488281 6.695312 C 12.164062 6.734375 11.972656 6.804688 11.761719 7.066406 C 11.617188 7.304688 11.566406 7.453125 11.617188 7.726562 C 11.65625 7.859375 11.703125 7.984375 11.761719 8.113281 C 11.777344 8.085938 11.792969 8.058594 11.808594 8.027344 C 12.066406 7.617188 12.40625 7.285156 12.863281 7.105469 C 13.023438 7.074219 13.179688 7.058594 13.34375 7.054688 C 13.238281 7.578125 12.996094 8.28125 12.582031 8.640625 C 12.347656 8.746094 12.097656 8.699219 11.855469 8.640625 C 11.636719 8.546875 11.445312 8.421875 11.328125 8.207031 C 11.328125 8.175781 11.328125 8.144531 11.328125 8.113281 C 11.003906 8.257812 10.808594 8.410156 10.65625 8.734375 C 10.605469 8.886719 10.601562 8.996094 10.605469 9.152344 C 10.605469 9.199219 10.605469 9.25 10.605469 9.296875 C 10.605469 9.351562 10.605469 9.351562 10.609375 9.40625 C 10.671875 9.421875 10.734375 9.441406 10.800781 9.457031 C 10.804688 9.5 10.8125 9.542969 10.816406 9.589844 C 10.828125 9.675781 10.828125 9.675781 10.84375 9.761719 C 10.855469 9.847656 10.855469 9.847656 10.867188 9.933594 C 10.882812 10.085938 10.882812 10.085938 10.992188 10.175781 C 11.003906 10.265625 11.003906 10.265625 11 10.375 C 11 10.433594 11 10.433594 11 10.492188 C 11 10.550781 11 10.550781 10.996094 10.613281 C 10.996094 10.65625 10.996094 10.695312 10.996094 10.738281 C 10.996094 10.839844 10.992188 10.9375 10.992188 11.039062 C 10.941406 11.042969 10.890625 11.046875 10.839844 11.054688 C 10.585938 11.101562 10.476562 11.203125 10.304688 11.386719 C 10.105469 11.714844 10.261719 12.105469 10.34375 12.453125 C 10.390625 12.65625 10.445312 12.859375 10.511719 13.054688 C 10.519531 13.007812 10.527344 12.957031 10.535156 12.90625 C 10.617188 12.390625 10.71875 11.980469 11.101562 11.601562 C 11.3125 11.378906 11.324219 11.175781 11.332031 10.875 C 11.328125 10.832031 11.328125 10.792969 11.328125 10.753906 C 11.40625 10.734375 11.488281 10.71875 11.566406 10.703125 C 11.566406 10.640625 11.566406 10.578125 11.566406 10.511719 C 11.488281 10.496094 11.410156 10.480469 11.328125 10.464844 C 11.328125 10.433594 11.328125 10.398438 11.324219 10.367188 C 11.3125 10.085938 11.3125 10.085938 11.164062 9.851562 C 11.121094 9.816406 11.082031 9.78125 11.039062 9.742188 C 10.90625 9.480469 10.910156 9.167969 10.945312 8.878906 C 10.996094 8.757812 11.046875 8.691406 11.136719 8.59375 C 11.253906 8.644531 11.34375 8.699219 11.445312 8.78125 C 12.066406 9.1875 13.054688 9.070312 13.753906 8.976562 C 14.796875 8.835938 15.671875 8.898438 16.535156 9.546875 C 17.195312 10.089844 17.550781 10.878906 17.664062 11.710938 C 17.742188 12.667969 17.625 13.605469 17.035156 14.394531 C 16.503906 15.007812 15.78125 15.449219 14.964844 15.539062 C 14.90625 15.542969 14.84375 15.546875 14.785156 15.550781 C 14.785156 15.582031 14.785156 15.617188 14.785156 15.648438 C 14.527344 15.734375 14.304688 15.757812 14.035156 15.753906 C 14 15.753906 13.964844 15.753906 13.925781 15.753906 C 13.742188 15.75 13.570312 15.738281 13.390625 15.695312 C 13.148438 15.667969 13.019531 15.667969 12.820312 15.816406 C 12.714844 15.898438 12.621094 15.988281 12.527344 16.082031 C 12.011719 16.574219 11.417969 16.664062 10.730469 16.660156 C 10.6875 16.660156 10.640625 16.660156 10.597656 16.660156 C 10.488281 16.65625 10.378906 16.65625 10.273438 16.65625 C 10.324219 16.328125 10.488281 16.128906 10.746094 15.921875 C 10.875 15.828125 11.003906 15.738281 11.136719 15.648438 C 11.089844 15.632812 11.039062 15.617188 10.992188 15.601562 C 11.066406 15.40625 11.148438 15.214844 11.230469 15.023438 C 11.179688 15.039062 11.132812 15.054688 11.078125 15.070312 C 10.554688 15.199219 10.121094 15.125 9.648438 14.878906 C 9.609375 14.851562 9.566406 14.824219 9.523438 14.796875 C 9.125 14.523438 8.773438 14.484375 8.304688 14.464844 C 8.144531 14.457031 7.980469 14.445312 7.820312 14.4375 C 7.738281 14.429688 7.65625 14.425781 7.578125 14.421875 C 6.324219 14.34375 5.109375 14.089844 4.113281 13.289062 C 3.953125 13.179688 3.824219 13.152344 3.640625 13.125 C 3.550781 13.105469 3.550781 13.105469 3.429688 13.007812 C 3.332031 12.804688 3.324219 12.605469 3.359375 12.382812 C 3.40625 12.335938 3.40625 12.335938 3.457031 12.289062 C 3.460938 12.152344 3.460938 12.152344 3.453125 12 C 3.445312 11.1875 3.917969 10.539062 4.46875 9.976562 C 4.515625 9.929688 4.5625 9.886719 4.609375 9.839844 C 4.644531 9.804688 4.679688 9.769531 4.714844 9.734375 C 5.152344 9.328125 5.652344 8.984375 6.160156 8.675781 C 6.203125 8.648438 6.203125 8.648438 6.253906 8.617188 C 6.328125 8.574219 6.402344 8.535156 6.480469 8.496094 C 6.511719 8.511719 6.542969 8.527344 6.574219 8.542969 C 6.429688 8.796875 6.28125 8.914062 6.03125 9.058594 C 5.039062 9.652344 4.039062 10.460938 3.726562 11.621094 C 3.6875 11.792969 3.660156 11.964844 3.648438 12.144531 C 3.675781 12.140625 3.703125 12.136719 3.734375 12.132812 C 3.902344 12.117188 4.027344 12.109375 4.175781 12.203125 C 4.292969 12.324219 4.363281 12.417969 4.378906 12.589844 C 4.359375 12.785156 4.316406 12.933594 4.222656 13.105469 C 4.953125 13.640625 5.699219 13.886719 6.574219 14.0625 C 6.628906 14.074219 6.679688 14.085938 6.730469 14.097656 C 7.359375 14.210938 8 14.210938 8.636719 14.214844 C 8.703125 14.214844 8.769531 14.21875 8.835938 14.21875 C 9.164062 14.222656 9.46875 14.21875 9.785156 14.132812 C 9.984375 14.089844 10.191406 14.101562 10.394531 14.105469 C 10.4375 14.105469 10.484375 14.105469 10.527344 14.105469 C 10.632812 14.109375 10.742188 14.109375 10.847656 14.113281 C 10.832031 14.085938 10.8125 14.058594 10.796875 14.03125 C 10.773438 13.996094 10.75 13.960938 10.726562 13.925781 C 10.707031 13.890625 10.683594 13.855469 10.660156 13.820312 C 10.609375 13.726562 10.609375 13.726562 10.609375 13.632812 C 10.429688 13.5625 10.257812 13.527344 10.066406 13.5 C 9.535156 13.40625 9.152344 13.058594 8.835938 12.636719 C 8.734375 12.480469 8.734375 12.480469 8.734375 12.335938 C 9.332031 12.296875 9.769531 12.425781 10.222656 12.816406 C 10.222656 12.675781 10.175781 12.5625 10.128906 12.433594 C 10.003906 12.308594 9.882812 12.21875 9.738281 12.125 C 9.183594 11.773438 8.972656 11.367188 8.785156 10.753906 C 8.785156 10.703125 8.785156 10.65625 8.785156 10.609375 C 9.148438 10.625 9.445312 10.789062 9.703125 11.046875 C 9.761719 11.117188 9.820312 11.183594 9.875 11.253906 C 9.894531 11.277344 9.914062 11.304688 9.9375 11.328125 C 9.953125 11.328125 9.96875 11.328125 9.984375 11.328125 C 9.976562 10.9375 9.976562 10.9375 9.800781 10.609375 C 9.726562 10.5625 9.648438 10.519531 9.574219 10.480469 C 9.167969 10.261719 8.917969 9.921875 8.761719 9.496094 C 8.734375 9.40625 8.734375 9.40625 8.734375 9.265625 C 8.308594 9.265625 7.878906 9.265625 7.441406 9.265625 C 7.410156 9.40625 7.375 9.550781 7.34375 9.695312 C 7.328125 9.746094 7.308594 9.792969 7.289062 9.84375 C 7.238281 10.015625 7.234375 10.164062 7.234375 10.34375 C 7.234375 10.40625 7.234375 10.464844 7.234375 10.527344 C 7.242188 10.726562 7.242188 10.726562 7.34375 10.992188 C 6.851562 10.992188 6.363281 10.992188 5.855469 10.992188 C 5.964844 10.800781 6.070312 10.621094 6.1875 10.4375 C 6.296875 10.257812 6.375 10.082031 6.445312 9.886719 C 6.476562 9.796875 6.476562 9.796875 6.507812 9.707031 C 6.53125 9.640625 6.554688 9.570312 6.574219 9.503906 C 6.589844 9.46875 6.601562 9.429688 6.613281 9.394531 C 6.796875 8.855469 6.980469 8.3125 7.160156 7.773438 C 7.246094 7.519531 7.332031 7.265625 7.417969 7.011719 C 7.5 6.765625 7.585938 6.515625 7.667969 6.269531 C 7.699219 6.175781 7.730469 6.082031 7.761719 5.988281 C 7.804688 5.859375 7.851562 5.726562 7.894531 5.597656 C 7.90625 5.558594 7.917969 5.519531 7.933594 5.480469 C 7.996094 5.285156 8.039062 5.144531 7.96875 4.945312 C 7.929688 4.867188 7.886719 4.792969 7.84375 4.71875 C 7.714844 4.46875 7.703125 4.261719 7.726562 3.984375 C 7.921875 3.984375 7.921875 3.984375 8.085938 4.074219 C 8.351562 4.214844 8.632812 4.234375 8.929688 4.273438 C 8.996094 4.28125 9.0625 4.289062 9.128906 4.300781 C 9.300781 4.324219 9.476562 4.34375 9.648438 4.367188 C 9.625 4.308594 9.601562 4.25 9.574219 4.191406 C 9.433594 3.761719 9.457031 3.339844 9.644531 2.933594 C 9.703125 2.816406 9.765625 2.703125 9.839844 2.59375 Z M 9.839844 2.59375 "/>
<path style=" stroke:none;fill-rule:nonzero;fill:rgb(0.392157%,0.392157%,0.392157%);fill-opacity:1;" d="M 11.136719 8.59375 C 11.253906 8.644531 11.34375 8.699219 11.445312 8.78125 C 12.066406 9.1875 13.054688 9.070312 13.753906 8.976562 C 14.796875 8.835938 15.671875 8.898438 16.535156 9.546875 C 17.195312 10.089844 17.550781 10.878906 17.664062 11.710938 C 17.742188 12.667969 17.625 13.605469 17.035156 14.394531 C 16.683594 14.800781 16.285156 15.101562 15.792969 15.3125 C 15.75 15.328125 15.710938 15.347656 15.667969 15.367188 C 15.066406 15.59375 14.367188 15.625 13.726562 15.601562 C 13.605469 15.375 13.539062 15.160156 13.472656 14.914062 C 13.242188 14.101562 12.761719 13.679688 12.046875 13.246094 C 11.976562 13.222656 11.976562 13.222656 11.902344 13.199219 C 11.9375 13.90625 12.078125 14.535156 12.582031 15.058594 C 12.730469 15.191406 12.886719 15.304688 13.054688 15.40625 C 12.824219 15.496094 12.65625 15.386719 12.441406 15.292969 C 12.203125 15.171875 11.976562 15.039062 11.761719 14.878906 C 11.726562 14.859375 11.695312 14.839844 11.660156 14.820312 C 11.480469 14.695312 11.390625 14.605469 11.34375 14.386719 C 11.335938 14.230469 11.332031 14.078125 11.339844 13.921875 C 11.34375 13.824219 11.34375 13.726562 11.34375 13.628906 C 11.355469 13.113281 11.355469 13.113281 11.449219 12.921875 C 11.550781 12.699219 11.539062 12.488281 11.53125 12.242188 C 11.53125 12.195312 11.53125 12.152344 11.53125 12.105469 C 11.527344 11.84375 11.511719 11.589844 11.472656 11.328125 C 11.441406 11.328125 11.410156 11.328125 11.375 11.328125 C 11.375 11.152344 11.375 10.980469 11.375 10.800781 C 11.4375 10.769531 11.503906 10.738281 11.566406 10.703125 C 11.566406 10.640625 11.566406 10.578125 11.566406 10.511719 C 11.488281 10.496094 11.410156 10.480469 11.328125 10.464844 C 11.328125 10.433594 11.328125 10.398438 11.324219 10.367188 C 11.3125 10.085938 11.3125 10.085938 11.164062 9.851562 C 11.121094 9.816406 11.082031 9.78125 11.039062 9.742188 C 10.90625 9.480469 10.910156 9.167969 10.945312 8.878906 C 10.996094 8.757812 11.046875 8.691406 11.136719 8.59375 Z M 11.136719 8.59375 "/>
<path style=" stroke:none;fill-rule:nonzero;fill:rgb(43.921569%,56.078434%,24.313726%);fill-opacity:1;" d="M 10.175781 8.0625 C 10.339844 8.101562 10.4375 8.132812 10.558594 8.257812 C 10.628906 8.378906 10.683594 8.5 10.703125 8.640625 C 10.671875 8.71875 10.640625 8.800781 10.609375 8.878906 C 10.597656 9.019531 10.597656 9.019531 10.601562 9.160156 C 10.601562 9.207031 10.605469 9.253906 10.605469 9.300781 C 10.605469 9.335938 10.605469 9.371094 10.609375 9.40625 C 10.671875 9.421875 10.734375 9.441406 10.800781 9.457031 C 10.804688 9.5 10.8125 9.542969 10.816406 9.589844 C 10.824219 9.644531 10.832031 9.703125 10.84375 9.761719 C 10.855469 9.847656 10.855469 9.847656 10.867188 9.933594 C 10.882812 10.085938 10.882812 10.085938 10.992188 10.175781 C 11.003906 10.265625 11.003906 10.265625 11 10.375 C 11 10.433594 11 10.433594 11 10.492188 C 11 10.550781 11 10.550781 10.996094 10.613281 C 10.996094 10.65625 10.996094 10.695312 10.996094 10.738281 C 10.996094 10.839844 10.992188 10.9375 10.992188 11.039062 C 10.941406 11.042969 10.890625 11.046875 10.839844 11.054688 C 10.585938 11.101562 10.476562 11.203125 10.304688 11.386719 C 10.105469 11.714844 10.261719 12.105469 10.34375 12.453125 C 10.390625 12.65625 10.445312 12.859375 10.511719 13.054688 C 10.519531 13.007812 10.527344 12.957031 10.535156 12.90625 C 10.617188 12.390625 10.71875 11.980469 11.101562 11.601562 C 11.3125 11.378906 11.324219 11.175781 11.332031 10.875 C 11.328125 10.8125 11.328125 10.8125 11.328125 10.753906 C 11.390625 10.769531 11.453125 10.785156 11.519531 10.800781 C 11.472656 10.800781 11.425781 10.800781 11.375 10.800781 C 11.375 10.972656 11.375 11.148438 11.375 11.328125 C 11.40625 11.328125 11.4375 11.328125 11.472656 11.328125 C 11.5625 11.636719 11.585938 11.921875 11.582031 12.242188 C 11.582031 12.289062 11.585938 12.335938 11.585938 12.382812 C 11.585938 12.625 11.566406 12.785156 11.457031 13.003906 C 11.378906 13.234375 11.394531 13.484375 11.390625 13.726562 C 11.390625 13.824219 11.386719 13.921875 11.382812 14.019531 C 11.375 14.355469 11.375 14.355469 11.5 14.65625 C 11.597656 14.746094 11.695312 14.8125 11.808594 14.878906 C 11.839844 14.902344 11.871094 14.921875 11.90625 14.945312 C 11.996094 15.003906 12.09375 15.058594 12.1875 15.109375 C 12.238281 15.140625 12.238281 15.140625 12.289062 15.167969 C 12.527344 15.292969 12.738281 15.375 13.007812 15.40625 C 12.972656 15.382812 12.972656 15.382812 12.9375 15.359375 C 12.429688 15 12.054688 14.539062 11.921875 13.921875 C 11.902344 13.769531 11.898438 13.621094 11.902344 13.46875 C 11.902344 13.417969 11.902344 13.367188 11.902344 13.316406 C 11.902344 13.257812 11.902344 13.257812 11.902344 13.199219 C 12.378906 13.28125 12.882812 13.75 13.183594 14.109375 C 13.46875 14.53125 13.582031 15.070312 13.726562 15.550781 C 14.078125 15.550781 14.425781 15.550781 14.785156 15.550781 C 14.785156 15.582031 14.785156 15.617188 14.785156 15.648438 C 14.527344 15.734375 14.304688 15.757812 14.035156 15.753906 C 14 15.753906 13.964844 15.753906 13.925781 15.753906 C 13.742188 15.75 13.570312 15.738281 13.390625 15.695312 C 13.148438 15.667969 13.019531 15.667969 12.820312 15.816406 C 12.714844 15.898438 12.621094 15.988281 12.527344 16.082031 C 12.011719 16.574219 11.417969 16.664062 10.730469 16.660156 C 10.6875 16.660156 10.640625 16.660156 10.597656 16.660156 C 10.488281 16.65625 10.378906 16.65625 10.273438 16.65625 C 10.324219 16.328125 10.488281 16.128906 10.746094 15.921875 C 10.875 15.828125 11.003906 15.738281 11.136719 15.648438 C 11.089844 15.632812 11.039062 15.617188 10.992188 15.601562 C 11.066406 15.40625 11.148438 15.214844 11.230469 15.023438 C 11.179688 15.039062 11.132812 15.054688 11.078125 15.070312 C 10.554688 15.199219 10.121094 15.125 9.648438 14.878906 C 9.609375 14.851562 9.566406 14.824219 9.523438 14.796875 C 9.125 14.523438 8.773438 14.484375 8.304688 14.464844 C 8.144531 14.457031 7.980469 14.445312 7.820312 14.4375 C 7.738281 14.429688 7.65625 14.425781 7.578125 14.421875 C 6.324219 14.34375 5.109375 14.089844 4.113281 13.289062 C 3.953125 13.179688 3.824219 13.152344 3.640625 13.125 C 3.550781 13.105469 3.550781 13.105469 3.429688 13.007812 C 3.332031 12.804688 3.324219 12.605469 3.359375 12.382812 C 3.40625 12.335938 3.40625 12.335938 3.457031 12.289062 C 3.460938 12.152344 3.460938 12.152344 3.453125 12 C 3.445312 11.1875 3.917969 10.539062 4.46875 9.976562 C 4.515625 9.929688 4.5625 9.886719 4.609375 9.839844 C 4.644531 9.804688 4.679688 9.769531 4.714844 9.734375 C 5.152344 9.328125 5.652344 8.984375 6.160156 8.675781 C 6.203125 8.648438 6.203125 8.648438 6.253906 8.617188 C 6.328125 8.574219 6.402344 8.535156 6.480469 8.496094 C 6.527344 8.519531 6.527344 8.519531 6.574219 8.542969 C 6.429688 8.796875 6.28125 8.914062 6.03125 9.058594 C 5.039062 9.652344 4.039062 10.460938 3.726562 11.621094 C 3.6875 11.792969 3.660156 11.964844 3.648438 12.144531 C 3.675781 12.140625 3.703125 12.136719 3.734375 12.132812 C 3.902344 12.117188 4.027344 12.109375 4.175781 12.203125 C 4.292969 12.324219 4.363281 12.417969 4.378906 12.589844 C 4.359375 12.785156 4.316406 12.933594 4.222656 13.105469 C 4.953125 13.640625 5.699219 13.886719 6.574219 14.0625 C 6.652344 14.078125 6.652344 14.078125 6.730469 14.097656 C 7.359375 14.210938 8 14.210938 8.636719 14.214844 C 8.703125 14.214844 8.769531 14.21875 8.835938 14.21875 C 9.164062 14.222656 9.46875 14.21875 9.785156 14.132812 C 9.984375 14.089844 10.191406 14.101562 10.394531 14.105469 C 10.4375 14.105469 10.484375 14.105469 10.527344 14.105469 C 10.632812 14.109375 10.742188 14.109375 10.847656 14.113281 C 10.820312 14.070312 10.820312 14.070312 10.796875 14.03125 C 10.773438 13.996094 10.75 13.960938 10.726562 13.925781 C 10.707031 13.890625 10.683594 13.855469 10.660156 13.820312 C 10.609375 13.726562 10.609375 13.726562 10.609375 13.632812 C 10.429688 13.5625 10.257812 13.527344 10.066406 13.5 C 9.535156 13.40625 9.152344 13.058594 8.835938 12.636719 C 8.734375 12.480469 8.734375 12.480469 8.734375 12.335938 C 9.332031 12.296875 9.769531 12.425781 10.222656 12.816406 C 10.222656 12.675781 10.175781 12.5625 10.128906 12.433594 C 10.003906 12.308594 9.882812 12.21875 9.738281 12.125 C 9.183594 11.773438 8.972656 11.367188 8.785156 10.753906 C 8.785156 10.703125 8.785156 10.65625 8.785156 10.609375 C 9.148438 10.625 9.445312 10.789062 9.703125 11.046875 C 9.761719 11.117188 9.820312 11.183594 9.875 11.253906 C 9.894531 11.277344 9.914062 11.304688 9.9375 11.328125 C 9.953125 11.328125 9.96875 11.328125 9.984375 11.328125 C 9.976562 10.9375 9.976562 10.9375 9.800781 10.609375 C 9.726562 10.5625 9.648438 10.519531 9.574219 10.480469 C 9.167969 10.261719 8.917969 9.921875 8.761719 9.496094 C 8.734375 9.40625 8.734375 9.40625 8.734375 9.265625 C 8.324219 9.265625 7.914062 9.265625 7.488281 9.265625 C 7.488281 9.25 7.488281 9.230469 7.488281 9.214844 C 7.882812 9.214844 8.28125 9.214844 8.6875 9.214844 C 8.671875 9.136719 8.65625 9.058594 8.640625 8.976562 C 8.796875 8.996094 8.914062 9.015625 9.054688 9.097656 C 9.292969 9.203125 9.535156 9.203125 9.792969 9.214844 C 9.808594 9.261719 9.824219 9.3125 9.839844 9.359375 C 9.839844 9.328125 9.839844 9.300781 9.839844 9.269531 C 9.839844 9.230469 9.835938 9.191406 9.835938 9.148438 C 9.835938 9.109375 9.835938 9.070312 9.835938 9.03125 C 9.839844 8.929688 9.839844 8.929688 9.886719 8.832031 C 9.917969 8.832031 9.953125 8.832031 9.984375 8.832031 C 9.992188 8.75 9.992188 8.75 10 8.664062 C 10.023438 8.449219 10.09375 8.265625 10.175781 8.0625 Z M 10.175781 8.0625 "/>
<path style=" stroke:none;fill-rule:nonzero;fill:rgb(43.137255%,54.901963%,23.529412%);fill-opacity:1;" d="M 9.839844 2.59375 C 9.984375 2.640625 9.984375 2.640625 10.046875 2.75 C 10.105469 2.890625 10.167969 3.027344 10.222656 3.167969 C 10.246094 3.214844 10.265625 3.261719 10.285156 3.3125 C 10.367188 3.65625 10.339844 3.988281 10.222656 4.320312 C 10.421875 4.316406 10.421875 4.316406 10.609375 4.273438 C 10.703125 4.164062 10.742188 4.066406 10.800781 3.9375 C 10.886719 3.941406 10.886719 3.941406 10.992188 3.984375 C 11.058594 4.089844 11.101562 4.179688 11.148438 4.296875 C 11.160156 4.328125 11.171875 4.359375 11.1875 4.390625 C 11.273438 4.640625 11.308594 4.871094 11.308594 5.136719 C 11.308594 5.167969 11.308594 5.203125 11.308594 5.238281 C 11.300781 5.472656 11.230469 5.644531 11.136719 5.855469 C 11.089844 6.160156 11.140625 6.402344 11.28125 6.671875 C 11.285156 6.636719 11.289062 6.597656 11.292969 6.5625 C 11.363281 6.039062 11.558594 5.636719 11.957031 5.285156 C 12.046875 5.230469 12.046875 5.230469 12.191406 5.230469 C 12.195312 5.421875 12.195312 5.609375 12.195312 5.800781 C 12.195312 5.851562 12.195312 5.90625 12.195312 5.960938 C 12.195312 6.011719 12.195312 6.066406 12.195312 6.117188 C 12.195312 6.164062 12.195312 6.214844 12.199219 6.261719 C 12.191406 6.382812 12.191406 6.382812 12.144531 6.527344 C 12.179688 6.523438 12.214844 6.515625 12.25 6.511719 C 13.359375 6.34375 14.441406 6.230469 15.566406 6.226562 C 15.609375 6.226562 15.648438 6.226562 15.691406 6.226562 C 16.460938 6.222656 17.207031 6.28125 17.957031 6.457031 C 18.003906 6.464844 18.050781 6.476562 18.097656 6.488281 C 18.441406 6.566406 18.441406 6.566406 18.59375 6.609375 C 18.683594 6.632812 18.773438 6.652344 18.863281 6.671875 C 18.910156 6.640625 18.960938 6.609375 19.007812 6.574219 C 19.265625 6.554688 19.421875 6.554688 19.632812 6.71875 C 19.726562 6.863281 19.726562 6.863281 19.730469 6.996094 C 19.792969 7.210938 19.917969 7.273438 20.09375 7.402344 C 20.445312 7.664062 20.648438 8.039062 20.785156 8.449219 C 20.816406 8.914062 20.804688 9.316406 20.59375 9.742188 C 20.570312 9.789062 20.546875 9.835938 20.523438 9.882812 C 20.3125 10.277344 20.039062 10.578125 19.726562 10.894531 C 19.695312 10.929688 19.664062 10.964844 19.628906 11 C 19.175781 11.480469 18.613281 11.855469 18.046875 12.191406 C 18.03125 12.191406 18.015625 12.191406 18 12.191406 C 17.953125 12.003906 17.945312 11.851562 18 11.664062 C 18.171875 11.496094 18.371094 11.378906 18.574219 11.25 C 19.382812 10.707031 20.066406 9.933594 20.304688 8.976562 C 20.363281 8.574219 20.242188 8.203125 20.011719 7.875 C 19.859375 7.691406 19.859375 7.691406 19.679688 7.535156 C 19.558594 7.542969 19.558594 7.542969 19.441406 7.585938 C 19.214844 7.609375 19.058594 7.617188 18.863281 7.492188 C 18.699219 7.316406 18.714844 7.195312 18.71875 6.960938 C 18.636719 6.941406 18.636719 6.941406 18.550781 6.925781 C 18.410156 6.894531 18.273438 6.859375 18.140625 6.820312 C 16.484375 6.332031 14.546875 6.40625 12.851562 6.652344 C 12.730469 6.671875 12.609375 6.683594 12.488281 6.695312 C 12.164062 6.734375 11.972656 6.804688 11.761719 7.066406 C 11.617188 7.304688 11.566406 7.453125 11.617188 7.726562 C 11.65625 7.859375 11.703125 7.984375 11.761719 8.113281 C 11.777344 8.085938 11.792969 8.058594 11.808594 8.027344 C 12.066406 7.617188 12.40625 7.285156 12.863281 7.105469 C 13.023438 7.074219 13.179688 7.058594 13.34375 7.054688 C 13.238281 7.578125 12.996094 8.28125 12.582031 8.640625 C 12.308594 8.765625 12.003906 8.6875 11.730469 8.597656 C 11.617188 8.542969 11.554688 8.5 11.472656 8.398438 C 11.457031 8.28125 11.457031 8.28125 11.460938 8.152344 C 11.464844 8.109375 11.464844 8.0625 11.464844 8.019531 C 11.46875 7.988281 11.46875 7.953125 11.472656 7.921875 C 11.441406 7.910156 11.414062 7.902344 11.382812 7.894531 C 11.246094 7.855469 11.109375 7.8125 10.972656 7.773438 C 10.925781 7.757812 10.878906 7.746094 10.828125 7.734375 C 10.164062 7.53125 9.757812 7.070312 9.410156 6.488281 C 9.359375 6.382812 9.359375 6.382812 9.359375 6.238281 C 9.929688 6.191406 10.425781 6.320312 10.878906 6.675781 C 11.019531 6.796875 11.148438 6.925781 11.28125 7.054688 C 10.933594 6.1875 10.933594 6.1875 10.332031 5.5625 C 10.234375 5.535156 10.234375 5.535156 10.128906 5.519531 C 9.453125 5.382812 9.082031 5.101562 8.679688 4.554688 C 8.59375 4.414062 8.59375 4.414062 8.59375 4.273438 C 8.945312 4.296875 9.296875 4.328125 9.648438 4.367188 C 9.625 4.308594 9.601562 4.25 9.574219 4.191406 C 9.433594 3.761719 9.457031 3.339844 9.644531 2.933594 C 9.703125 2.816406 9.765625 2.703125 9.839844 2.59375 Z M 9.839844 2.59375 "/>
<path style=" stroke:none;fill-rule:nonzero;fill:rgb(43.529412%,55.29412%,23.921569%);fill-opacity:1;" d="M 10.175781 8.0625 C 10.339844 8.101562 10.4375 8.132812 10.558594 8.257812 C 10.628906 8.378906 10.683594 8.5 10.703125 8.640625 C 10.671875 8.71875 10.640625 8.800781 10.609375 8.878906 C 10.597656 9.019531 10.597656 9.019531 10.601562 9.160156 C 10.601562 9.207031 10.605469 9.253906 10.605469 9.300781 C 10.605469 9.335938 10.605469 9.371094 10.609375 9.40625 C 10.703125 9.433594 10.703125 9.433594 10.800781 9.457031 C 10.804688 9.5 10.8125 9.542969 10.816406 9.589844 C 10.824219 9.644531 10.832031 9.703125 10.84375 9.761719 C 10.851562 9.820312 10.859375 9.875 10.867188 9.933594 C 10.882812 10.085938 10.882812 10.085938 10.992188 10.175781 C 11.003906 10.265625 11.003906 10.265625 11 10.375 C 11 10.414062 11 10.453125 11 10.492188 C 11 10.550781 11 10.550781 10.996094 10.613281 C 10.996094 10.65625 10.996094 10.695312 10.996094 10.738281 C 10.996094 10.839844 10.992188 10.9375 10.992188 11.039062 C 10.941406 11.042969 10.890625 11.046875 10.839844 11.054688 C 10.585938 11.101562 10.476562 11.203125 10.304688 11.386719 C 10.105469 11.714844 10.261719 12.105469 10.34375 12.453125 C 10.390625 12.65625 10.445312 12.859375 10.511719 13.054688 C 10.519531 13.007812 10.527344 12.957031 10.535156 12.90625 C 10.617188 12.390625 10.71875 11.980469 11.101562 11.601562 C 11.3125 11.378906 11.324219 11.175781 11.332031 10.875 C 11.328125 10.832031 11.328125 10.792969 11.328125 10.753906 C 11.421875 10.777344 11.421875 10.777344 11.519531 10.800781 C 11.472656 10.800781 11.425781 10.800781 11.375 10.800781 C 11.375 10.972656 11.375 11.148438 11.375 11.328125 C 11.40625 11.328125 11.4375 11.328125 11.472656 11.328125 C 11.5625 11.636719 11.585938 11.921875 11.582031 12.242188 C 11.582031 12.289062 11.585938 12.335938 11.585938 12.382812 C 11.585938 12.625 11.566406 12.785156 11.457031 13.003906 C 11.371094 13.261719 11.394531 13.550781 11.390625 13.820312 C 11.390625 13.886719 11.386719 13.953125 11.386719 14.015625 C 11.382812 14.175781 11.378906 14.335938 11.375 14.496094 C 11.359375 14.496094 11.34375 14.496094 11.328125 14.496094 C 11.3125 14.117188 11.296875 13.734375 11.28125 13.34375 C 10.996094 13.761719 10.996094 13.761719 10.945312 14.015625 C 10.855469 14.007812 10.855469 14.007812 10.753906 13.96875 C 10.609375 13.765625 10.609375 13.765625 10.609375 13.632812 C 10.429688 13.5625 10.257812 13.527344 10.066406 13.5 C 9.535156 13.40625 9.152344 13.058594 8.835938 12.636719 C 8.734375 12.480469 8.734375 12.480469 8.734375 12.335938 C 9.332031 12.296875 9.769531 12.425781 10.222656 12.816406 C 10.222656 12.675781 10.175781 12.5625 10.128906 12.433594 C 10.003906 12.308594 9.882812 12.21875 9.738281 12.125 C 9.183594 11.773438 8.972656 11.367188 8.785156 10.753906 C 8.785156 10.703125 8.785156 10.65625 8.785156 10.609375 C 9.148438 10.625 9.445312 10.789062 9.703125 11.046875 C 9.761719 11.117188 9.820312 11.183594 9.875 11.253906 C 9.90625 11.289062 9.90625 11.289062 9.9375 11.328125 C 9.953125 11.328125 9.96875 11.328125 9.984375 11.328125 C 9.976562 10.9375 9.976562 10.9375 9.800781 10.609375 C 9.726562 10.5625 9.648438 10.519531 9.574219 10.480469 C 9.167969 10.261719 8.917969 9.921875 8.761719 9.496094 C 8.734375 9.40625 8.734375 9.40625 8.734375 9.265625 C 8.324219 9.265625 7.914062 9.265625 7.488281 9.265625 C 7.488281 9.25 7.488281 9.230469 7.488281 9.214844 C 7.882812 9.214844 8.28125 9.214844 8.6875 9.214844 C 8.664062 9.097656 8.664062 9.097656 8.640625 8.976562 C 8.796875 8.996094 8.914062 9.015625 9.054688 9.097656 C 9.292969 9.203125 9.535156 9.203125 9.792969 9.214844 C 9.816406 9.289062 9.816406 9.289062 9.839844 9.359375 C 9.839844 9.328125 9.839844 9.300781 9.839844 9.269531 C 9.839844 9.230469 9.835938 9.191406 9.835938 9.148438 C 9.835938 9.109375 9.835938 9.070312 9.835938 9.03125 C 9.839844 8.929688 9.839844 8.929688 9.886719 8.832031 C 9.917969 8.832031 9.953125 8.832031 9.984375 8.832031 C 9.988281 8.777344 9.992188 8.722656 10 8.664062 C 10.023438 8.449219 10.09375 8.265625 10.175781 8.0625 Z M 10.175781 8.0625 "/>
<path style=" stroke:none;fill-rule:nonzero;fill:rgb(98.039216%,98.039216%,98.039216%);fill-opacity:1;" d="M 13.996094 9.484375 C 14.289062 9.488281 14.472656 9.546875 14.6875 9.742188 C 15.285156 10.367188 15.335938 11.300781 15.328125 12.121094 C 15.328125 12.230469 15.328125 12.335938 15.328125 12.445312 C 15.324219 13.242188 15.238281 14.132812 14.722656 14.777344 C 14.449219 14.992188 14.21875 15.09375 13.871094 15.097656 C 13.734375 15.0625 13.703125 14.996094 13.632812 14.878906 C 13.613281 14.773438 13.613281 14.773438 13.613281 14.65625 C 13.613281 14.613281 13.613281 14.566406 13.613281 14.523438 C 13.613281 14.472656 13.613281 14.425781 13.613281 14.375 C 13.613281 14.324219 13.613281 14.273438 13.613281 14.21875 C 13.613281 14.050781 13.613281 13.878906 13.613281 13.710938 C 13.613281 13.589844 13.613281 13.472656 13.613281 13.355469 C 13.613281 13.109375 13.613281 12.863281 13.617188 12.613281 C 13.617188 12.296875 13.617188 11.980469 13.617188 11.664062 C 13.617188 11.417969 13.617188 11.175781 13.617188 10.933594 C 13.617188 10.816406 13.617188 10.699219 13.617188 10.582031 C 13.617188 10.417969 13.617188 10.253906 13.617188 10.09375 C 13.617188 10.019531 13.617188 10.019531 13.617188 9.945312 C 13.617188 9.902344 13.621094 9.855469 13.621094 9.8125 C 13.621094 9.773438 13.621094 9.734375 13.621094 9.695312 C 13.648438 9.472656 13.8125 9.488281 13.996094 9.484375 Z M 13.996094 9.484375 "/>
<path style=" stroke:none;fill-rule:nonzero;fill:rgb(43.137255%,54.901963%,23.921569%);fill-opacity:1;" d="M 11.328125 10.753906 C 11.390625 10.769531 11.453125 10.785156 11.519531 10.800781 C 11.472656 10.800781 11.425781 10.800781 11.375 10.800781 C 11.375 10.972656 11.375 11.148438 11.375 11.328125 C 11.40625 11.328125 11.4375 11.328125 11.472656 11.328125 C 11.5625 11.636719 11.585938 11.921875 11.582031 12.242188 C 11.582031 12.289062 11.585938 12.335938 11.585938 12.382812 C 11.585938 12.625 11.566406 12.785156 11.457031 13.003906 C 11.371094 13.261719 11.394531 13.550781 11.390625 13.820312 C 11.390625 13.886719 11.386719 13.953125 11.386719 14.015625 C 11.382812 14.175781 11.378906 14.335938 11.375 14.496094 C 11.359375 14.496094 11.34375 14.496094 11.328125 14.496094 C 11.3125 14.117188 11.296875 13.734375 11.28125 13.34375 C 10.996094 13.761719 10.996094 13.761719 10.945312 14.015625 C 10.855469 14.007812 10.855469 14.007812 10.753906 13.96875 C 10.609375 13.765625 10.609375 13.765625 10.609375 13.632812 C 10.429688 13.5625 10.257812 13.527344 10.066406 13.5 C 9.535156 13.40625 9.152344 13.058594 8.835938 12.636719 C 8.734375 12.480469 8.734375 12.480469 8.734375 12.335938 C 9.332031 12.296875 9.769531 12.425781 10.222656 12.816406 C 10.222656 12.6875 10.195312 12.558594 10.175781 12.433594 C 10.222656 12.433594 10.269531 12.433594 10.320312 12.433594 C 10.382812 12.636719 10.445312 12.84375 10.511719 13.054688 C 10.519531 13.007812 10.527344 12.957031 10.535156 12.90625 C 10.617188 12.390625 10.71875 11.980469 11.101562 11.601562 C 11.3125 11.378906 11.324219 11.175781 11.332031 10.875 C 11.328125 10.832031 11.328125 10.792969 11.328125 10.753906 Z M 11.328125 10.753906 "/>
<path style=" stroke:none;fill-rule:nonzero;fill:rgb(96.078432%,96.078432%,96.078432%);fill-opacity:1;" d="M 8.59375 5.808594 C 8.625 5.808594 8.65625 5.808594 8.6875 5.808594 C 9.066406 6.933594 9.066406 6.933594 9.175781 7.292969 C 9.25 7.539062 9.328125 7.78125 9.414062 8.023438 C 9.425781 8.0625 9.4375 8.097656 9.449219 8.132812 C 9.519531 8.332031 9.519531 8.332031 9.648438 8.496094 C 9.632812 8.574219 9.617188 8.65625 9.601562 8.734375 C 8.648438 8.710938 8.648438 8.710938 7.679688 8.6875 C 7.789062 8.203125 7.789062 8.203125 7.863281 7.980469 C 7.878906 7.933594 7.894531 7.882812 7.910156 7.832031 C 7.9375 7.757812 7.9375 7.757812 7.964844 7.679688 C 7.980469 7.625 8 7.570312 8.019531 7.515625 C 8.074219 7.34375 8.132812 7.175781 8.191406 7.003906 C 8.230469 6.890625 8.269531 6.773438 8.304688 6.65625 C 8.402344 6.375 8.496094 6.089844 8.59375 5.808594 Z M 8.59375 5.808594 "/>
<path style=" stroke:none;fill-rule:nonzero;fill:rgb(43.921569%,56.078434%,24.705882%);fill-opacity:1;" d="M 19.726562 7.152344 C 20.242188 7.410156 20.511719 7.777344 20.734375 8.304688 C 20.890625 8.765625 20.804688 9.316406 20.59375 9.742188 C 20.570312 9.789062 20.546875 9.835938 20.523438 9.882812 C 20.3125 10.277344 20.039062 10.578125 19.726562 10.894531 C 19.679688 10.949219 19.679688 10.949219 19.628906 11 C 19.175781 11.480469 18.613281 11.855469 18.046875 12.191406 C 18.03125 12.191406 18.015625 12.191406 18 12.191406 C 17.953125 12.003906 17.945312 11.851562 18 11.664062 C 18.171875 11.496094 18.371094 11.378906 18.574219 11.25 C 19.382812 10.707031 20.066406 9.933594 20.304688 8.976562 C 20.355469 8.632812 20.273438 8.320312 20.113281 8.015625 C 19.980469 7.84375 19.835938 7.6875 19.679688 7.535156 C 19.648438 7.503906 19.617188 7.472656 19.585938 7.441406 C 19.632812 7.34375 19.679688 7.25 19.726562 7.152344 Z M 19.726562 7.152344 "/>
<path style=" stroke:none;fill-rule:nonzero;fill:rgb(42.352942%,54.509807%,22.352941%);fill-opacity:1;" d="M 11.902344 13.199219 C 12.378906 13.28125 12.882812 13.75 13.183594 14.109375 C 13.46875 14.53125 13.582031 15.070312 13.726562 15.550781 C 14.078125 15.550781 14.425781 15.550781 14.785156 15.550781 C 14.785156 15.582031 14.785156 15.617188 14.785156 15.648438 C 14.53125 15.730469 14.308594 15.757812 14.042969 15.757812 C 14.007812 15.757812 13.976562 15.757812 13.941406 15.757812 C 13.695312 15.757812 13.484375 15.714844 13.246094 15.648438 C 13.246094 15.617188 13.246094 15.585938 13.246094 15.550781 C 13.167969 15.535156 13.089844 15.519531 13.007812 15.503906 C 13.007812 15.472656 13.007812 15.441406 13.007812 15.40625 C 12.933594 15.347656 12.933594 15.347656 12.839844 15.285156 C 12.375 14.945312 12.046875 14.492188 11.921875 13.921875 C 11.902344 13.769531 11.898438 13.621094 11.902344 13.46875 C 11.902344 13.417969 11.902344 13.367188 11.902344 13.316406 C 11.902344 13.257812 11.902344 13.257812 11.902344 13.199219 Z M 11.902344 13.199219 "/>
<path style=" stroke:none;fill-rule:nonzero;fill:rgb(45.490196%,57.254905%,26.666668%);fill-opacity:1;" d="M 6.480469 8.496094 C 6.527344 8.519531 6.527344 8.519531 6.574219 8.542969 C 6.429688 8.796875 6.28125 8.914062 6.03125 9.058594 C 5.039062 9.652344 4.039062 10.460938 3.726562 11.621094 C 3.6875 11.792969 3.660156 11.964844 3.648438 12.144531 C 3.675781 12.140625 3.703125 12.136719 3.734375 12.132812 C 3.902344 12.117188 4.027344 12.109375 4.175781 12.203125 C 4.292969 12.324219 4.359375 12.421875 4.386719 12.589844 C 4.375 12.800781 4.332031 12.894531 4.195312 13.058594 C 3.980469 13.179688 3.890625 13.1875 3.648438 13.152344 C 3.511719 13.066406 3.429688 13.007812 3.359375 12.863281 C 3.355469 12.785156 3.351562 12.703125 3.351562 12.625 C 3.351562 12.582031 3.351562 12.539062 3.347656 12.496094 C 3.359375 12.382812 3.359375 12.382812 3.457031 12.289062 C 3.460938 12.152344 3.460938 12.152344 3.453125 12 C 3.445312 11.1875 3.917969 10.539062 4.46875 9.976562 C 4.515625 9.929688 4.5625 9.886719 4.609375 9.839844 C 4.660156 9.789062 4.660156 9.789062 4.714844 9.734375 C 5.152344 9.328125 5.652344 8.984375 6.160156 8.675781 C 6.191406 8.65625 6.21875 8.636719 6.253906 8.617188 C 6.328125 8.574219 6.402344 8.535156 6.480469 8.496094 Z M 6.480469 8.496094 "/>
<path style=" stroke:none;fill-rule:nonzero;fill:rgb(43.529412%,55.686277%,23.529412%);fill-opacity:1;" d="M 13.34375 7.054688 C 13.238281 7.578125 12.996094 8.28125 12.582031 8.640625 C 12.347656 8.746094 12.097656 8.695312 11.855469 8.640625 C 11.726562 8.585938 11.632812 8.53125 11.519531 8.449219 C 11.535156 8.382812 11.550781 8.320312 11.566406 8.257812 C 11.601562 8.257812 11.632812 8.257812 11.664062 8.257812 C 11.714844 8.179688 11.765625 8.097656 11.8125 8.015625 C 12.078125 7.585938 12.46875 7.222656 12.960938 7.074219 C 13.089844 7.050781 13.214844 7.054688 13.34375 7.054688 Z M 13.34375 7.054688 "/>
<path style=" stroke:none;fill-rule:nonzero;fill:rgb(1.568628%,1.568628%,1.176471%);fill-opacity:1;" d="M 19.390625 6.574219 C 19.5625 6.65625 19.621094 6.703125 19.726562 6.863281 C 19.75 7.101562 19.753906 7.203125 19.636719 7.414062 C 19.535156 7.535156 19.5 7.578125 19.34375 7.59375 C 19.144531 7.601562 19.039062 7.601562 18.863281 7.492188 C 18.703125 7.324219 18.703125 7.199219 18.707031 6.972656 C 18.726562 6.8125 18.796875 6.730469 18.910156 6.625 C 19.066406 6.546875 19.226562 6.558594 19.390625 6.574219 Z M 19.390625 6.574219 "/>
<path style=" stroke:none;fill-rule:nonzero;fill:rgb(1.176471%,1.568628%,1.176471%);fill-opacity:1;" d="M 4.078125 12.144531 C 4.222656 12.234375 4.300781 12.328125 4.367188 12.480469 C 4.390625 12.640625 4.378906 12.761719 4.320312 12.910156 C 4.203125 13.054688 4.117188 13.132812 3.9375 13.171875 C 3.757812 13.183594 3.65625 13.15625 3.507812 13.0625 C 3.367188 12.917969 3.351562 12.832031 3.34375 12.632812 C 3.34375 12.453125 3.355469 12.390625 3.449219 12.234375 C 3.664062 12.105469 3.839844 12.085938 4.078125 12.144531 Z M 4.078125 12.144531 "/>
<path style=" stroke:none;fill-rule:nonzero;fill:rgb(7.450981%,7.450981%,7.450981%);fill-opacity:1;" d="M 7.777344 17.28125 C 8.457031 17.300781 8.457031 17.300781 8.632812 17.425781 C 8.753906 17.59375 8.773438 17.691406 8.757812 17.898438 C 8.726562 18.046875 8.65625 18.132812 8.542969 18.238281 C 8.339844 18.34375 8.042969 18.289062 7.824219 18.289062 C 7.808594 17.957031 7.792969 17.621094 7.777344 17.28125 Z M 7.777344 17.28125 "/>
<path style=" stroke:none;fill-rule:nonzero;fill:rgb(9.803922%,9.803922%,9.803922%);fill-opacity:1;" d="M 17.28125 17.617188 C 17.363281 17.867188 17.328125 18.125 17.28125 18.382812 C 17.175781 18.542969 17.175781 18.542969 17.039062 18.625 C 16.886719 18.644531 16.886719 18.644531 16.753906 18.625 C 16.71875 18.59375 16.6875 18.5625 16.65625 18.527344 C 16.667969 18.5 16.679688 18.46875 16.6875 18.441406 C 16.695312 18.390625 16.695312 18.390625 16.703125 18.335938 C 16.664062 18.296875 16.625 18.261719 16.585938 18.222656 C 16.464844 18.097656 16.464844 18.097656 16.441406 17.945312 C 16.464844 17.808594 16.464844 17.808594 16.511719 17.71875 C 16.640625 17.648438 16.75 17.65625 16.890625 17.660156 C 17.023438 17.664062 17.148438 17.640625 17.28125 17.617188 Z M 17.28125 17.617188 "/>
<path style=" stroke:none;fill-rule:nonzero;fill:rgb(5.098039%,5.098039%,5.098039%);fill-opacity:1;" d="M 7.183594 17.324219 C 7.242188 17.324219 7.242188 17.324219 7.300781 17.328125 C 7.347656 17.328125 7.347656 17.328125 7.390625 17.328125 C 7.421875 17.421875 7.457031 17.519531 7.488281 17.617188 C 7.410156 17.617188 7.328125 17.617188 7.246094 17.617188 C 7.230469 17.535156 7.214844 17.457031 7.199219 17.375 C 7.152344 17.375 7.105469 17.375 7.054688 17.375 C 7.117188 17.613281 7.191406 17.71875 7.390625 17.855469 C 7.390625 17.824219 7.390625 17.792969 7.390625 17.761719 C 7.472656 17.777344 7.550781 17.792969 7.632812 17.808594 C 7.617188 17.964844 7.601562 18.125 7.585938 18.289062 C 7.503906 18.304688 7.425781 18.320312 7.34375 18.335938 C 7.328125 18.320312 7.3125 18.304688 7.296875 18.289062 C 7.226562 18.289062 7.15625 18.292969 7.085938 18.296875 C 6.878906 18.300781 6.878906 18.300781 6.765625 18.207031 C 6.714844 18.082031 6.707031 17.992188 6.71875 17.855469 C 6.734375 17.839844 6.75 17.824219 6.769531 17.808594 C 6.792969 17.695312 6.8125 17.585938 6.835938 17.472656 C 6.84375 17.441406 6.855469 17.410156 6.863281 17.375 C 6.980469 17.316406 7.054688 17.324219 7.183594 17.324219 Z M 7.183594 17.324219 "/>
<path style=" stroke:none;fill-rule:nonzero;fill:rgb(3.137255%,3.137255%,3.137255%);fill-opacity:1;" d="M 17.472656 17.617188 C 17.597656 17.605469 17.683594 17.601562 17.796875 17.664062 C 17.890625 17.816406 17.890625 17.964844 17.902344 18.144531 C 17.910156 18.082031 17.917969 18.023438 17.929688 17.960938 C 17.933594 17.925781 17.9375 17.894531 17.941406 17.859375 C 17.953125 17.753906 17.953125 17.753906 17.953125 17.617188 C 18.078125 17.632812 18.207031 17.648438 18.335938 17.664062 C 18.339844 17.773438 18.339844 17.878906 18.34375 17.988281 C 18.34375 18.046875 18.34375 18.109375 18.34375 18.171875 C 18.332031 18.40625 18.332031 18.40625 18.238281 18.527344 C 18.066406 18.5625 18.066406 18.5625 17.902344 18.574219 C 17.917969 18.527344 17.9375 18.480469 17.953125 18.433594 C 17.90625 18.398438 17.855469 18.367188 17.808594 18.335938 C 17.871094 18.335938 17.933594 18.335938 18 18.335938 C 17.984375 18.304688 17.96875 18.273438 17.953125 18.238281 C 17.9375 18.253906 17.921875 18.273438 17.902344 18.289062 C 17.761719 18.296875 17.761719 18.296875 17.617188 18.289062 C 17.503906 18.175781 17.503906 18.132812 17.488281 17.980469 C 17.488281 17.941406 17.484375 17.902344 17.480469 17.867188 C 17.472656 17.78125 17.472656 17.699219 17.472656 17.617188 Z M 17.472656 17.617188 "/>
<path style=" stroke:none;fill-rule:nonzero;fill:rgb(5.098039%,5.098039%,5.098039%);fill-opacity:1;" d="M 12 17.28125 C 12.125 17.296875 12.253906 17.3125 12.382812 17.328125 C 12.398438 17.453125 12.414062 17.582031 12.433594 17.710938 C 12.449219 17.695312 12.464844 17.679688 12.480469 17.664062 C 12.621094 17.65625 12.621094 17.65625 12.769531 17.664062 C 12.890625 17.789062 12.882812 17.855469 12.894531 18.03125 C 12.898438 18.078125 12.902344 18.125 12.90625 18.175781 C 12.910156 18.230469 12.910156 18.230469 12.910156 18.289062 C 12.773438 18.292969 12.773438 18.292969 12.625 18.289062 C 12.480469 18.144531 12.5 18.007812 12.480469 17.808594 C 12.421875 17.855469 12.421875 17.855469 12.425781 17.957031 C 12.429688 17.996094 12.429688 18.035156 12.429688 18.074219 C 12.429688 18.113281 12.429688 18.152344 12.429688 18.195312 C 12.429688 18.226562 12.429688 18.257812 12.433594 18.289062 C 12.320312 18.289062 12.207031 18.289062 12.097656 18.289062 C 12.019531 18.210938 12.039062 18.128906 12.03125 18.023438 C 12.03125 17.980469 12.027344 17.9375 12.027344 17.894531 C 12.023438 17.847656 12.023438 17.804688 12.019531 17.757812 C 12.019531 17.710938 12.015625 17.664062 12.015625 17.617188 C 12.007812 17.507812 12.003906 17.394531 12 17.28125 Z M 12 17.28125 "/>
<path style=" stroke:none;fill-rule:nonzero;fill:rgb(3.529412%,3.529412%,3.529412%);fill-opacity:1;" d="M 5.902344 17.28125 C 6.046875 17.296875 6.1875 17.3125 6.335938 17.328125 C 6.382812 17.46875 6.433594 17.613281 6.480469 17.753906 C 6.492188 17.792969 6.507812 17.835938 6.523438 17.875 C 6.535156 17.914062 6.546875 17.953125 6.5625 17.992188 C 6.574219 18.027344 6.585938 18.066406 6.597656 18.101562 C 6.625 18.191406 6.625 18.191406 6.625 18.289062 C 6.496094 18.289062 6.371094 18.289062 6.238281 18.289062 C 6.238281 18.207031 6.238281 18.128906 6.238281 18.046875 C 6.113281 18.046875 5.988281 18.046875 5.855469 18.046875 C 5.855469 18.128906 5.855469 18.207031 5.855469 18.289062 C 5.792969 18.289062 5.730469 18.289062 5.664062 18.289062 C 5.6875 18.203125 5.707031 18.121094 5.730469 18.039062 C 5.742188 17.992188 5.753906 17.945312 5.765625 17.898438 C 5.808594 17.761719 5.808594 17.761719 5.859375 17.632812 C 5.910156 17.507812 5.910156 17.414062 5.902344 17.28125 Z M 5.902344 17.28125 "/>
<path style=" stroke:none;fill-rule:nonzero;fill:rgb(2.352941%,2.745098%,1.568628%);fill-opacity:1;" d="M 11.28125 14.976562 C 11.746094 14.898438 12.054688 15.117188 12.433594 15.359375 C 12.433594 15.375 12.433594 15.390625 12.433594 15.40625 C 12.367188 15.410156 12.367188 15.410156 12.300781 15.414062 C 11.976562 15.429688 11.691406 15.464844 11.382812 15.570312 C 11.25 15.609375 11.128906 15.609375 10.992188 15.601562 C 11.074219 15.382812 11.175781 15.179688 11.28125 14.976562 Z M 11.28125 14.976562 "/>
<path style=" stroke:none;fill-rule:nonzero;fill:rgb(7.843138%,7.843138%,7.843138%);fill-opacity:1;" d="M 16.222656 17.664062 C 16.351562 17.746094 16.351562 17.746094 16.414062 17.855469 C 16.445312 18.011719 16.429688 18.074219 16.347656 18.207031 C 16.164062 18.328125 16.003906 18.320312 15.792969 18.289062 C 15.667969 18.238281 15.667969 18.238281 15.601562 18.144531 C 15.5625 17.859375 15.5625 17.859375 15.660156 17.726562 C 15.824219 17.605469 16.027344 17.636719 16.222656 17.664062 Z M 16.222656 17.664062 "/>
<path style=" stroke:none;fill-rule:nonzero;fill:rgb(4.705882%,4.705882%,4.705882%);fill-opacity:1;" d="M 9.265625 17.328125 C 9.566406 17.328125 9.867188 17.328125 10.175781 17.328125 C 10.175781 17.421875 10.175781 17.519531 10.175781 17.617188 C 10.144531 17.617188 10.113281 17.617188 10.078125 17.617188 C 10.0625 17.554688 10.046875 17.488281 10.03125 17.425781 C 9.984375 17.425781 9.9375 17.425781 9.886719 17.425781 C 9.902344 17.710938 9.917969 17.996094 9.9375 18.289062 C 9.808594 18.289062 9.683594 18.289062 9.550781 18.289062 C 9.550781 18.003906 9.550781 17.71875 9.550781 17.425781 C 9.519531 17.425781 9.488281 17.425781 9.457031 17.425781 C 9.441406 17.488281 9.425781 17.550781 9.40625 17.617188 C 9.359375 17.617188 9.3125 17.617188 9.265625 17.617188 C 9.265625 17.519531 9.265625 17.425781 9.265625 17.328125 Z M 9.265625 17.328125 "/>
<path style=" stroke:none;fill-rule:nonzero;fill:rgb(8.627451%,8.627451%,8.627451%);fill-opacity:1;" d="M 13.054688 17.617188 C 13.167969 17.632812 13.277344 17.648438 13.390625 17.664062 C 13.390625 17.695312 13.390625 17.726562 13.390625 17.761719 C 13.441406 17.726562 13.488281 17.695312 13.535156 17.664062 C 13.710938 17.65625 13.710938 17.65625 13.871094 17.664062 C 13.960938 17.75 13.9375 17.886719 13.945312 18.003906 C 13.953125 18.082031 13.953125 18.082031 13.960938 18.164062 C 13.960938 18.203125 13.964844 18.246094 13.96875 18.289062 C 13.828125 18.292969 13.828125 18.292969 13.679688 18.289062 C 13.535156 18.144531 13.554688 18.007812 13.535156 17.808594 C 13.480469 17.917969 13.484375 17.980469 13.484375 18.101562 C 13.484375 18.164062 13.488281 18.226562 13.488281 18.289062 C 13.351562 18.292969 13.351562 18.292969 13.199219 18.289062 C 13.070312 18.160156 13.085938 18.078125 13.074219 17.898438 C 13.070312 17.84375 13.066406 17.792969 13.0625 17.738281 C 13.0625 17.699219 13.058594 17.65625 13.054688 17.617188 Z M 13.054688 17.617188 "/>
<path style=" stroke:none;fill-rule:nonzero;fill:rgb(6.27451%,6.27451%,6.27451%);fill-opacity:1;" d="M 14.496094 17.664062 C 14.496094 17.839844 14.496094 18.011719 14.496094 18.191406 C 14.527344 18.207031 14.558594 18.222656 14.59375 18.238281 C 14.578125 18.050781 14.558594 17.859375 14.542969 17.664062 C 14.820312 17.699219 14.820312 17.699219 14.929688 17.808594 C 14.949219 17.976562 14.945312 18.066406 14.859375 18.210938 C 14.675781 18.324219 14.511719 18.324219 14.304688 18.289062 C 14.179688 18.210938 14.179688 18.210938 14.113281 18.097656 C 14.089844 17.941406 14.085938 17.851562 14.167969 17.71875 C 14.257812 17.664062 14.257812 17.664062 14.496094 17.664062 Z M 14.496094 17.664062 "/>
<path style=" stroke:none;fill-rule:nonzero;fill:rgb(47.450981%,58.823532%,29.019609%);fill-opacity:1;" d="M 14.929688 13.152344 C 14.914062 13.292969 14.894531 13.4375 14.878906 13.585938 C 14.753906 13.625 14.628906 13.664062 14.503906 13.703125 C 14.464844 13.714844 14.429688 13.726562 14.394531 13.738281 C 14.121094 13.824219 14.121094 13.824219 14.015625 13.824219 C 14.015625 13.695312 14.015625 13.570312 14.015625 13.441406 C 14.769531 13.152344 14.769531 13.152344 14.929688 13.152344 Z M 14.929688 13.152344 "/>
<path style=" stroke:none;fill-rule:nonzero;fill:rgb(3.529412%,3.529412%,3.529412%);fill-opacity:1;" d="M 15.023438 17.28125 C 15.152344 17.296875 15.277344 17.3125 15.40625 17.328125 C 15.421875 17.644531 15.441406 17.960938 15.457031 18.289062 C 15.359375 18.289062 15.265625 18.289062 15.167969 18.289062 C 15.054688 18.171875 15.058594 18.140625 15.050781 17.984375 C 15.050781 17.941406 15.046875 17.902344 15.046875 17.859375 C 15.046875 17.816406 15.042969 17.773438 15.042969 17.730469 C 15.039062 17.6875 15.039062 17.644531 15.035156 17.597656 C 15.03125 17.492188 15.027344 17.386719 15.023438 17.28125 Z M 15.023438 17.28125 "/>
<path style=" stroke:none;fill-rule:nonzero;fill:rgb(6.27451%,6.27451%,6.27451%);fill-opacity:1;" d="M 10.65625 17.664062 C 10.625 17.757812 10.59375 17.855469 10.558594 17.953125 C 10.625 17.921875 10.6875 17.890625 10.753906 17.855469 C 10.753906 17.792969 10.753906 17.730469 10.753906 17.664062 C 10.832031 17.679688 10.910156 17.695312 10.992188 17.710938 C 11.023438 17.800781 11.023438 17.800781 11.039062 17.902344 C 10.945312 18 10.945312 18 10.769531 18.007812 C 10.714844 18.003906 10.664062 18.003906 10.609375 18 C 10.625 18.09375 10.625 18.09375 10.65625 18.191406 C 10.6875 18.207031 10.71875 18.222656 10.753906 18.238281 C 10.753906 18.191406 10.753906 18.144531 10.753906 18.097656 C 10.847656 18.082031 10.941406 18.0625 11.039062 18.046875 C 10.949219 18.234375 10.949219 18.234375 10.894531 18.289062 C 10.691406 18.3125 10.519531 18.324219 10.339844 18.210938 C 10.253906 18.0625 10.246094 17.976562 10.273438 17.808594 C 10.375 17.648438 10.472656 17.648438 10.65625 17.664062 Z M 10.65625 17.664062 "/>
<path style=" stroke:none;fill-rule:nonzero;fill:rgb(5.490196%,5.490196%,5.490196%);fill-opacity:1;" d="M 11.761719 17.664062 C 11.808594 17.695312 11.855469 17.726562 11.902344 17.761719 C 11.871094 17.824219 11.839844 17.886719 11.808594 17.953125 C 11.746094 17.953125 11.679688 17.953125 11.617188 17.953125 C 11.617188 17.871094 11.617188 17.792969 11.617188 17.710938 C 11.570312 17.726562 11.519531 17.742188 11.472656 17.761719 C 11.449219 17.988281 11.449219 17.988281 11.542969 18.1875 C 11.566406 18.207031 11.589844 18.222656 11.617188 18.238281 C 11.617188 18.191406 11.617188 18.144531 11.617188 18.097656 C 11.695312 18.097656 11.773438 18.097656 11.855469 18.097656 C 11.808594 18.238281 11.808594 18.238281 11.710938 18.289062 C 11.382812 18.308594 11.382812 18.308594 11.207031 18.238281 C 11.09375 18.085938 11.125 17.949219 11.136719 17.761719 C 11.363281 17.621094 11.5 17.601562 11.761719 17.664062 Z M 11.761719 17.664062 "/>
<path style=" stroke:none;fill-rule:nonzero;fill:rgb(2.352941%,3.137255%,1.176471%);fill-opacity:1;" d="M 10.609375 4.320312 C 10.601562 4.351562 10.59375 4.378906 10.585938 4.410156 C 10.550781 4.609375 10.554688 4.804688 10.558594 5.007812 C 10.558594 5.046875 10.558594 5.085938 10.558594 5.128906 C 10.558594 5.226562 10.558594 5.324219 10.558594 5.425781 C 10.359375 5.226562 10.199219 5.007812 10.078125 4.753906 C 10.078125 4.59375 10.113281 4.515625 10.175781 4.367188 C 10.328125 4.335938 10.449219 4.320312 10.609375 4.320312 Z M 10.609375 4.320312 "/>
<path style=" stroke:none;fill-rule:nonzero;fill:rgb(5.098039%,5.098039%,5.098039%);fill-opacity:1;" d="M 8.351562 17.375 C 8.480469 17.394531 8.570312 17.410156 8.679688 17.484375 C 8.789062 17.640625 8.765625 17.816406 8.734375 18 C 8.644531 18.160156 8.59375 18.222656 8.417969 18.285156 C 8.363281 18.285156 8.363281 18.285156 8.304688 18.289062 C 8.273438 18.257812 8.242188 18.226562 8.207031 18.191406 C 8.230469 18.175781 8.253906 18.160156 8.28125 18.140625 C 8.390625 18 8.367188 17.878906 8.359375 17.703125 C 8.359375 17.640625 8.359375 17.582031 8.355469 17.519531 C 8.355469 17.472656 8.355469 17.425781 8.351562 17.375 Z M 8.351562 17.375 "/>
<path style=" stroke:none;fill-rule:nonzero;fill:rgb(0.784314%,0.784314%,0.784314%);fill-opacity:1;" d="M 17.28125 17.617188 C 17.335938 17.78125 17.328125 17.894531 17.316406 18.070312 C 17.3125 18.125 17.308594 18.179688 17.304688 18.234375 C 17.277344 18.390625 17.25 18.464844 17.136719 18.574219 C 16.984375 18.589844 16.984375 18.589844 16.847656 18.574219 C 16.894531 18.480469 16.941406 18.386719 16.992188 18.289062 C 16.945312 18.273438 16.898438 18.257812 16.847656 18.238281 C 16.878906 18.238281 16.910156 18.238281 16.945312 18.238281 C 16.945312 18.207031 16.949219 18.171875 16.949219 18.136719 C 16.953125 18.09375 16.957031 18.050781 16.960938 18.007812 C 16.964844 17.960938 16.96875 17.917969 16.972656 17.875 C 16.992188 17.761719 16.992188 17.761719 17.089844 17.664062 C 17.191406 17.632812 17.191406 17.632812 17.28125 17.617188 Z M 17.28125 17.617188 "/>
<path style=" stroke:none;fill-rule:nonzero;fill:rgb(98.039216%,98.431373%,97.647059%);fill-opacity:1;" d="M 11.28125 13.296875 C 11.296875 13.296875 11.3125 13.296875 11.328125 13.296875 C 11.328125 13.675781 11.328125 14.054688 11.328125 14.449219 C 10.945312 14.066406 10.945312 14.066406 10.941406 13.886719 C 11.011719 13.664062 11.136719 13.480469 11.28125 13.296875 Z M 11.28125 13.296875 "/>
<path style=" stroke:none;fill-rule:nonzero;fill:rgb(10.196079%,10.196079%,10.196079%);fill-opacity:1;" d="M 17.472656 17.617188 C 17.597656 17.605469 17.683594 17.601562 17.796875 17.664062 C 17.890625 17.816406 17.890625 17.964844 17.902344 18.144531 C 17.9375 18.097656 17.96875 18.050781 18 18 C 18.015625 18.109375 18.03125 18.222656 18.046875 18.335938 C 18.015625 18.304688 17.984375 18.273438 17.953125 18.238281 C 17.9375 18.253906 17.921875 18.273438 17.902344 18.289062 C 17.761719 18.296875 17.761719 18.296875 17.617188 18.289062 C 17.503906 18.175781 17.503906 18.132812 17.488281 17.980469 C 17.488281 17.941406 17.484375 17.902344 17.480469 17.867188 C 17.472656 17.78125 17.472656 17.699219 17.472656 17.617188 Z M 17.472656 17.617188 "/>
<path style=" stroke:none;fill-rule:nonzero;fill:rgb(6.27451%,6.27451%,6.27451%);fill-opacity:1;" d="M 6.769531 17.808594 C 7.007812 17.867188 7.136719 17.953125 7.296875 18.144531 C 7.296875 18.191406 7.296875 18.238281 7.296875 18.289062 C 6.902344 18.316406 6.902344 18.316406 6.765625 18.207031 C 6.714844 18.082031 6.707031 17.992188 6.71875 17.855469 C 6.734375 17.839844 6.75 17.824219 6.769531 17.808594 Z M 6.769531 17.808594 "/>
<path style=" stroke:none;fill-rule:nonzero;fill:rgb(1.568628%,1.568628%,1.568628%);fill-opacity:1;" d="M 13.585938 17.664062 C 13.679688 17.660156 13.777344 17.660156 13.871094 17.664062 C 13.960938 17.75 13.9375 17.886719 13.945312 18.003906 C 13.949219 18.054688 13.953125 18.109375 13.960938 18.164062 C 13.960938 18.203125 13.964844 18.246094 13.96875 18.289062 C 13.871094 18.289062 13.777344 18.289062 13.679688 18.289062 C 13.59375 18.199219 13.613281 18.066406 13.605469 17.949219 C 13.601562 17.894531 13.597656 17.84375 13.59375 17.789062 C 13.589844 17.726562 13.589844 17.726562 13.585938 17.664062 Z M 13.585938 17.664062 "/>
<path style=" stroke:none;fill-rule:nonzero;fill:rgb(21.568628%,21.568628%,21.568628%);fill-opacity:1;" d="M 6 17.566406 C 6.03125 17.582031 6.0625 17.601562 6.097656 17.617188 C 6.125 17.714844 6.125 17.714844 6.148438 17.835938 C 6.15625 17.875 6.164062 17.914062 6.175781 17.957031 C 6.179688 17.984375 6.1875 18.015625 6.191406 18.046875 C 6.082031 18.046875 5.96875 18.046875 5.855469 18.046875 C 5.855469 18.128906 5.855469 18.207031 5.855469 18.289062 C 5.792969 18.289062 5.730469 18.289062 5.664062 18.289062 C 5.6875 18.203125 5.707031 18.117188 5.730469 18.03125 C 5.742188 17.984375 5.753906 17.9375 5.765625 17.890625 C 5.808594 17.761719 5.808594 17.761719 5.902344 17.617188 C 5.917969 17.632812 5.9375 17.648438 5.953125 17.664062 C 5.96875 17.632812 5.984375 17.601562 6 17.566406 Z M 6 17.566406 "/>
<path style=" stroke:none;fill-rule:nonzero;fill:rgb(5.490196%,5.490196%,5.490196%);fill-opacity:1;" d="M 16.03125 17.664062 C 16.175781 17.6875 16.175781 17.6875 16.320312 17.710938 C 16.425781 17.867188 16.441406 17.914062 16.414062 18.097656 C 16.332031 18.207031 16.332031 18.207031 16.222656 18.289062 C 16.160156 18.289062 16.097656 18.289062 16.03125 18.289062 C 16.03125 18.082031 16.03125 17.875 16.03125 17.664062 Z M 16.03125 17.664062 "/>
<path style=" stroke:none;fill-rule:nonzero;fill:rgb(92.156863%,92.156863%,92.156863%);fill-opacity:1;" d="M 8.160156 17.425781 C 8.351562 17.472656 8.351562 17.472656 8.398438 17.519531 C 8.40625 17.605469 8.410156 17.691406 8.410156 17.777344 C 8.410156 17.824219 8.410156 17.871094 8.410156 17.921875 C 8.398438 18.046875 8.398438 18.046875 8.304688 18.191406 C 8.257812 18.191406 8.210938 18.191406 8.160156 18.191406 C 8.160156 17.9375 8.160156 17.683594 8.160156 17.425781 Z M 8.160156 17.425781 "/>
<path style=" stroke:none;fill-rule:nonzero;fill:rgb(92.941177%,94.117647%,90.980393%);fill-opacity:1;" d="M 9.40625 9.265625 C 9.535156 9.265625 9.660156 9.265625 9.792969 9.265625 C 10.050781 10.011719 10.050781 10.011719 10.03125 10.320312 C 9.984375 10.222656 9.9375 10.128906 9.898438 10.027344 C 9.792969 9.769531 9.664062 9.585938 9.476562 9.386719 C 9.40625 9.3125 9.40625 9.3125 9.40625 9.265625 Z M 9.40625 9.265625 "/>
<path style=" stroke:none;fill-rule:nonzero;fill:rgb(44.313726%,56.078434%,24.705882%);fill-opacity:1;" d="M 14.878906 13.390625 C 14.878906 13.457031 14.878906 13.519531 14.878906 13.585938 C 14.753906 13.625 14.628906 13.664062 14.503906 13.703125 C 14.464844 13.714844 14.429688 13.726562 14.394531 13.738281 C 14.121094 13.824219 14.121094 13.824219 14.015625 13.824219 C 14.019531 13.734375 14.019531 13.734375 14.0625 13.632812 C 14.183594 13.578125 14.292969 13.535156 14.421875 13.5 C 14.453125 13.488281 14.488281 13.480469 14.523438 13.46875 C 14.765625 13.390625 14.765625 13.390625 14.878906 13.390625 Z M 14.878906 13.390625 "/>
<path style=" stroke:none;fill-rule:nonzero;fill:rgb(13.725491%,13.725491%,13.725491%);fill-opacity:1;" d="M 9.265625 17.328125 C 9.566406 17.328125 9.867188 17.328125 10.175781 17.328125 C 10.175781 17.421875 10.175781 17.519531 10.175781 17.617188 C 10.144531 17.617188 10.113281 17.617188 10.078125 17.617188 C 10.0625 17.554688 10.046875 17.488281 10.03125 17.425781 C 9.84375 17.425781 9.652344 17.425781 9.457031 17.425781 C 9.441406 17.488281 9.425781 17.550781 9.40625 17.617188 C 9.359375 17.617188 9.3125 17.617188 9.265625 17.617188 C 9.265625 17.519531 9.265625 17.425781 9.265625 17.328125 Z M 9.265625 17.328125 "/>
<path style=" stroke:none;fill-rule:nonzero;fill:rgb(47.843137%,59.215689%,29.803923%);fill-opacity:1;" d="M 8.878906 7.535156 C 8.878906 7.582031 8.878906 7.632812 8.878906 7.679688 C 8.820312 7.703125 8.757812 7.726562 8.695312 7.753906 C 8.644531 7.773438 8.644531 7.773438 8.59375 7.792969 C 8.496094 7.824219 8.496094 7.824219 8.351562 7.824219 C 8.359375 7.710938 8.359375 7.710938 8.398438 7.585938 C 8.570312 7.480469 8.6875 7.480469 8.878906 7.535156 Z M 8.878906 7.535156 "/>
<path style=" stroke:none;fill-rule:nonzero;fill:rgb(7.058824%,7.058824%,7.058824%);fill-opacity:1;" d="M 8.0625 3.023438 C 8.164062 3.042969 8.164062 3.042969 8.257812 3.070312 C 8.285156 3.1875 8.285156 3.1875 8.304688 3.3125 C 8.273438 3.34375 8.242188 3.375 8.207031 3.40625 C 8.105469 3.390625 8.105469 3.390625 8.015625 3.359375 C 7.984375 3.246094 7.984375 3.246094 7.96875 3.121094 C 8 3.089844 8.03125 3.058594 8.0625 3.023438 Z M 8.0625 3.023438 "/>
<path style=" stroke:none;fill-rule:nonzero;fill:rgb(94.117647%,94.901961%,93.333334%);fill-opacity:1;" d="M 9.886719 8.832031 C 9.96875 8.828125 10.046875 8.828125 10.128906 8.832031 C 10.175781 8.878906 10.175781 8.878906 10.179688 9.003906 C 10.179688 9.042969 10.175781 9.082031 10.175781 9.121094 C 10.0625 9.148438 10.0625 9.148438 9.9375 9.167969 C 9.902344 9.136719 9.871094 9.105469 9.839844 9.070312 C 9.859375 8.945312 9.859375 8.945312 9.886719 8.832031 Z M 9.886719 8.832031 "/>
<path style=" stroke:none;fill-rule:nonzero;fill:rgb(91.764706%,91.764706%,91.764706%);fill-opacity:1;" d="M 12.863281 12.71875 C 12.945312 12.734375 13.023438 12.75 13.105469 12.769531 C 13.105469 12.847656 13.105469 12.925781 13.105469 13.007812 C 12.988281 13.039062 12.988281 13.039062 12.863281 13.054688 C 12.832031 13.023438 12.800781 12.992188 12.769531 12.960938 C 12.792969 12.789062 12.792969 12.789062 12.863281 12.71875 Z M 12.863281 12.71875 "/>
<path style=" stroke:none;fill-rule:nonzero;fill:rgb(3.529412%,3.529412%,3.529412%);fill-opacity:1;" d="M 11.882812 4.507812 C 11.941406 4.511719 11.941406 4.511719 12 4.511719 C 12.03125 4.625 12.03125 4.625 12.046875 4.753906 C 12.015625 4.785156 11.984375 4.816406 11.953125 4.847656 C 11.851562 4.828125 11.851562 4.828125 11.761719 4.800781 C 11.742188 4.71875 11.726562 4.640625 11.710938 4.558594 C 11.761719 4.511719 11.761719 4.511719 11.882812 4.507812 Z M 11.882812 4.507812 "/>
<path style=" stroke:none;fill-rule:nonzero;fill:rgb(3.921569%,3.921569%,3.921569%);fill-opacity:1;" d="M 8.785156 3.3125 C 8.886719 3.328125 8.886719 3.328125 8.976562 3.359375 C 8.996094 3.441406 9.011719 3.519531 9.023438 3.601562 C 8.976562 3.648438 8.976562 3.648438 8.851562 3.652344 C 8.796875 3.648438 8.796875 3.648438 8.734375 3.648438 C 8.707031 3.535156 8.707031 3.535156 8.6875 3.40625 C 8.71875 3.375 8.75 3.34375 8.785156 3.3125 Z M 8.785156 3.3125 "/>
<path style=" stroke:none;fill-rule:nonzero;fill:rgb(4.313726%,4.313726%,4.313726%);fill-opacity:1;" d="M 8.878906 2.640625 C 8.960938 2.652344 9.039062 2.667969 9.121094 2.6875 C 9.148438 2.777344 9.148438 2.777344 9.167969 2.878906 C 9.136719 2.910156 9.105469 2.941406 9.070312 2.976562 C 8.945312 2.957031 8.945312 2.957031 8.832031 2.929688 C 8.828125 2.847656 8.828125 2.769531 8.832031 2.6875 C 8.847656 2.671875 8.863281 2.65625 8.878906 2.640625 Z M 8.878906 2.640625 "/>
<path style=" stroke:none;fill-rule:nonzero;fill:rgb(88.235295%,88.235295%,88.235295%);fill-opacity:1;" d="M 14.351562 17.617188 C 14.464844 17.617188 14.574219 17.617188 14.6875 17.617188 C 14.65625 17.648438 14.625 17.679688 14.59375 17.710938 C 14.582031 17.839844 14.582031 17.839844 14.585938 17.980469 C 14.585938 18.054688 14.585938 18.054688 14.589844 18.128906 C 14.589844 18.164062 14.589844 18.203125 14.59375 18.238281 C 14.542969 18.222656 14.496094 18.207031 14.449219 18.191406 C 14.449219 18.160156 14.449219 18.125 14.453125 18.089844 C 14.453125 18.046875 14.453125 18.003906 14.453125 17.957031 C 14.457031 17.894531 14.457031 17.894531 14.457031 17.828125 C 14.460938 17.703125 14.460938 17.703125 14.351562 17.617188 Z M 14.351562 17.617188 "/>
<path style=" stroke:none;fill-rule:nonzero;fill:rgb(6.666667%,6.666667%,6.666667%);fill-opacity:1;" d="M 9.121094 8.304688 C 9.246094 8.320312 9.246094 8.320312 9.359375 8.351562 C 9.34375 8.445312 9.328125 8.542969 9.3125 8.640625 C 9.234375 8.625 9.152344 8.609375 9.070312 8.59375 C 9.042969 8.503906 9.042969 8.503906 9.023438 8.398438 C 9.054688 8.367188 9.085938 8.335938 9.121094 8.304688 Z M 9.121094 8.304688 "/>
<path style=" stroke:none;fill-rule:nonzero;fill:rgb(88.235295%,88.235295%,88.235295%);fill-opacity:1;" d="M 7.054688 17.375 C 7.101562 17.375 7.152344 17.375 7.199219 17.375 C 7.203125 17.40625 7.207031 17.433594 7.210938 17.464844 C 7.238281 17.578125 7.238281 17.578125 7.34375 17.621094 C 7.375 17.636719 7.40625 17.648438 7.441406 17.664062 C 7.457031 17.695312 7.472656 17.726562 7.488281 17.761719 C 7.457031 17.761719 7.425781 17.761719 7.390625 17.761719 C 7.390625 17.792969 7.390625 17.824219 7.390625 17.855469 C 7.253906 17.792969 7.148438 17.738281 7.054688 17.617188 C 7.046875 17.488281 7.046875 17.488281 7.054688 17.375 Z M 7.054688 17.375 "/>
<path style=" stroke:none;fill-rule:nonzero;fill:rgb(38.039216%,49.803922%,19.607843%);fill-opacity:1;" d="M 11.808594 14.929688 C 12.046875 15.011719 12.261719 15.140625 12.480469 15.265625 C 12.464844 15.3125 12.449219 15.359375 12.433594 15.40625 C 12.347656 15.363281 12.261719 15.316406 12.175781 15.273438 C 12.128906 15.246094 12.082031 15.222656 12.035156 15.195312 C 11.921875 15.132812 11.84375 15.070312 11.761719 14.976562 C 11.777344 14.960938 11.792969 14.945312 11.808594 14.929688 Z M 11.808594 14.929688 "/>
<path style=" stroke:none;fill-rule:nonzero;fill:rgb(96.470588%,97.254902%,95.686275%);fill-opacity:1;" d="M 10.273438 8.160156 C 10.351562 8.171875 10.433594 8.191406 10.511719 8.207031 C 10.511719 8.289062 10.511719 8.367188 10.511719 8.449219 C 10.433594 8.464844 10.351562 8.480469 10.273438 8.496094 C 10.222656 8.449219 10.222656 8.449219 10.21875 8.328125 C 10.222656 8.207031 10.222656 8.207031 10.273438 8.160156 Z M 10.273438 8.160156 "/>
<path style=" stroke:none;fill-rule:nonzero;fill:rgb(16.470589%,16.470589%,16.470589%);fill-opacity:1;" d="M 11.425781 17.617188 C 11.742188 17.652344 11.742188 17.652344 11.902344 17.761719 C 11.871094 17.824219 11.839844 17.886719 11.808594 17.953125 C 11.746094 17.953125 11.679688 17.953125 11.617188 17.953125 C 11.617188 17.871094 11.617188 17.792969 11.617188 17.710938 C 11.554688 17.679688 11.488281 17.648438 11.425781 17.617188 Z M 11.425781 17.617188 "/>
<path style=" stroke:none;fill-rule:nonzero;fill:rgb(84.705883%,84.705883%,84.705883%);fill-opacity:1;" d="M 11.039062 17.808594 C 11.070312 17.808594 11.101562 17.808594 11.136719 17.808594 C 11.136719 17.886719 11.136719 17.964844 11.136719 18.046875 C 11.105469 18.03125 11.074219 18.015625 11.039062 18 C 11.023438 18.03125 11.007812 18.0625 10.992188 18.097656 C 10.914062 18.097656 10.832031 18.097656 10.753906 18.097656 C 10.753906 18.144531 10.753906 18.191406 10.753906 18.238281 C 10.703125 18.222656 10.65625 18.207031 10.609375 18.191406 C 10.609375 18.128906 10.609375 18.066406 10.609375 18 C 10.660156 17.996094 10.714844 17.988281 10.769531 17.984375 C 10.828125 17.972656 10.882812 17.964844 10.945312 17.953125 C 10.976562 17.90625 11.007812 17.855469 11.039062 17.808594 Z M 11.039062 17.808594 "/>
<path style=" stroke:none;fill-rule:nonzero;fill:rgb(3.921569%,3.921569%,3.921569%);fill-opacity:1;" d="M 10.753906 17.664062 C 10.832031 17.679688 10.910156 17.695312 10.992188 17.710938 C 11.023438 17.800781 11.023438 17.800781 11.039062 17.902344 C 10.945312 18 10.945312 18 10.816406 18.007812 C 10.78125 18.003906 10.742188 18.003906 10.703125 18 C 10.71875 17.890625 10.734375 17.777344 10.753906 17.664062 Z M 10.753906 17.664062 "/>
<path style=" stroke:none;fill-rule:nonzero;fill:rgb(54.509807%,54.509807%,54.509807%);fill-opacity:1;" d="M 16.753906 18.289062 C 16.851562 18.308594 16.851562 18.308594 16.945312 18.335938 C 16.929688 18.398438 16.914062 18.460938 16.894531 18.527344 C 16.945312 18.558594 16.992188 18.589844 17.039062 18.625 C 16.902344 18.628906 16.902344 18.628906 16.753906 18.625 C 16.71875 18.59375 16.6875 18.5625 16.65625 18.527344 C 16.683594 18.359375 16.683594 18.359375 16.753906 18.289062 Z M 16.753906 18.289062 "/>
<path style=" stroke:none;fill-rule:nonzero;fill:rgb(94.901961%,94.901961%,94.901961%);fill-opacity:1;" d="M 15.9375 17.710938 C 15.984375 17.710938 16.03125 17.710938 16.078125 17.710938 C 16.078125 17.871094 16.078125 18.027344 16.078125 18.191406 C 16.03125 18.207031 15.984375 18.222656 15.9375 18.238281 C 15.9375 18.066406 15.9375 17.890625 15.9375 17.710938 Z M 15.9375 17.710938 "/>
<path style=" stroke:none;fill-rule:nonzero;fill:rgb(70.980394%,70.980394%,70.980394%);fill-opacity:1;" d="M 10.511719 17.617188 C 10.621094 17.617188 10.734375 17.617188 10.847656 17.617188 C 10.8125 17.757812 10.8125 17.757812 10.753906 17.902344 C 10.648438 17.945312 10.648438 17.945312 10.558594 17.953125 C 10.570312 17.914062 10.578125 17.875 10.589844 17.839844 C 10.597656 17.796875 10.601562 17.753906 10.609375 17.710938 C 10.578125 17.679688 10.542969 17.648438 10.511719 17.617188 Z M 10.511719 17.617188 "/>
<path style=" stroke:none;fill-rule:nonzero;fill:rgb(87.843138%,87.843138%,87.843138%);fill-opacity:1;" d="M 6.910156 17.855469 C 7.078125 17.949219 7.078125 17.949219 7.246094 18.046875 C 7.246094 18.09375 7.246094 18.144531 7.246094 18.191406 C 7.132812 18.175781 7.132812 18.175781 7.007812 18.144531 C 6.910156 18 6.910156 18 6.910156 17.855469 Z M 6.910156 17.855469 "/>
<path style=" stroke:none;fill-rule:nonzero;fill:rgb(92.54902%,92.54902%,92.54902%);fill-opacity:1;" d="M 16.800781 17.761719 C 16.847656 17.761719 16.894531 17.761719 16.945312 17.761719 C 16.945312 17.917969 16.945312 18.078125 16.945312 18.238281 C 16.914062 18.238281 16.878906 18.238281 16.847656 18.238281 C 16.769531 18.085938 16.796875 17.929688 16.800781 17.761719 Z M 16.800781 17.761719 "/>
<path style=" stroke:none;fill-rule:nonzero;fill:rgb(94.901961%,94.901961%,94.901961%);fill-opacity:1;" d="M 13.535156 17.761719 C 13.550781 17.761719 13.566406 17.761719 13.585938 17.761719 C 13.601562 17.917969 13.617188 18.078125 13.632812 18.238281 C 13.585938 18.253906 13.535156 18.273438 13.488281 18.289062 C 13.421875 18.15625 13.429688 18.050781 13.441406 17.902344 C 13.472656 17.855469 13.503906 17.808594 13.535156 17.761719 Z M 13.535156 17.761719 "/>
<path style=" stroke:none;fill-rule:nonzero;fill:rgb(52.941179%,52.941179%,52.941179%);fill-opacity:1;" d="M 17.710938 18.382812 C 17.808594 18.382812 17.902344 18.382812 18 18.382812 C 17.984375 18.429688 17.96875 18.480469 17.953125 18.527344 C 17.984375 18.558594 18.015625 18.589844 18.046875 18.625 C 17.953125 18.625 17.859375 18.625 17.761719 18.625 C 17.746094 18.542969 17.726562 18.464844 17.710938 18.382812 Z M 17.710938 18.382812 "/>
<path style=" stroke:none;fill-rule:nonzero;fill:rgb(97.254902%,97.254902%,97.254902%);fill-opacity:1;" d="M 12.480469 17.761719 C 12.496094 17.761719 12.511719 17.761719 12.527344 17.761719 C 12.527344 17.917969 12.527344 18.078125 12.527344 18.238281 C 12.480469 18.222656 12.433594 18.207031 12.382812 18.191406 C 12.378906 18.03125 12.378906 18.03125 12.382812 17.855469 C 12.414062 17.824219 12.445312 17.792969 12.480469 17.761719 Z M 12.480469 17.761719 "/>
<path style=" stroke:none;fill-rule:nonzero;fill:rgb(89.803922%,89.803922%,89.803922%);fill-opacity:1;" d="M 6 17.566406 C 6.03125 17.582031 6.0625 17.601562 6.097656 17.617188 C 6.117188 17.726562 6.132812 17.839844 6.144531 17.953125 C 6.066406 17.953125 5.984375 17.953125 5.902344 17.953125 C 5.9375 17.824219 5.96875 17.699219 6 17.566406 Z M 6 17.566406 "/>
<path style=" stroke:none;fill-rule:nonzero;fill:rgb(16.862746%,16.862746%,16.862746%);fill-opacity:1;" d="M 5.855469 17.617188 C 5.902344 17.632812 5.949219 17.648438 6 17.664062 C 5.96875 17.757812 5.9375 17.855469 5.902344 17.953125 C 5.984375 17.953125 6.0625 17.953125 6.144531 17.953125 C 6.144531 17.96875 6.144531 17.984375 6.144531 18 C 6.03125 18 5.921875 18 5.808594 18 C 5.824219 17.875 5.839844 17.746094 5.855469 17.617188 Z M 5.855469 17.617188 "/>
<path style=" stroke:none;fill-rule:nonzero;fill:rgb(1.960784%,2.745098%,1.176471%);fill-opacity:1;" d="M 10.945312 10.703125 C 10.960938 10.703125 10.976562 10.703125 10.992188 10.703125 C 10.992188 10.800781 10.992188 10.894531 10.992188 10.992188 C 10.914062 10.992188 10.832031 10.992188 10.753906 10.992188 C 10.808594 10.875 10.851562 10.796875 10.945312 10.703125 Z M 10.945312 10.703125 "/>
<path style=" stroke:none;fill-rule:nonzero;fill:rgb(9.019608%,11.764706%,4.705882%);fill-opacity:1;" d="M 10.894531 10.222656 C 10.929688 10.222656 10.960938 10.222656 10.992188 10.222656 C 11.019531 10.453125 10.9375 10.570312 10.800781 10.753906 C 10.753906 10.65625 10.753906 10.65625 10.777344 10.550781 C 10.792969 10.511719 10.808594 10.472656 10.820312 10.433594 C 10.835938 10.394531 10.847656 10.355469 10.863281 10.316406 C 10.875 10.285156 10.882812 10.253906 10.894531 10.222656 Z M 10.894531 10.222656 "/>
<path style=" stroke:none;fill-rule:nonzero;fill:rgb(38.431373%,50.196081%,19.607843%);fill-opacity:1;" d="M 10.945312 10.464844 C 10.960938 10.464844 10.976562 10.464844 10.992188 10.464844 C 11 10.578125 11 10.578125 10.992188 10.703125 C 10.945312 10.734375 10.898438 10.765625 10.847656 10.800781 C 10.832031 10.769531 10.816406 10.738281 10.800781 10.703125 C 10.867188 10.578125 10.867188 10.578125 10.945312 10.464844 Z M 10.703125 10.753906 C 10.75 10.777344 10.75 10.777344 10.800781 10.800781 C 10.753906 10.824219 10.753906 10.824219 10.703125 10.847656 C 10.703125 10.816406 10.703125 10.785156 10.703125 10.753906 Z M 10.703125 10.753906 "/>
</g>
</svg>
